<?xml version="1.0" encoding="utf-8"?>
<!-- Generator: Adobe Illustrator 26.2.1, SVG Export Plug-In . SVG Version: 6.00 Build 0)  -->
<svg version="1.1" id="Layer_1" xmlns="http://www.w3.org/2000/svg" xmlns:xlink="http://www.w3.org/1999/xlink" x="0px" y="0px"
	 viewBox="0 0 512 512" style="enable-background:new 0 0 512 512;" xml:space="preserve">
<style type="text/css">
	.st0{fill:#231F20;}
</style>
<g>
	<path class="st0" d="M55.42,252.42c8.89,0,16.08-7.2,16.08-16.08c0-8.89-7.2-16.08-16.08-16.08c-8.89,0-16.08,7.2-16.08,16.08
		C39.32,245.22,46.53,252.42,55.42,252.42 M35.75,220.25C16,220.25,0,236.26,0,256s16,35.75,35.75,35.75V220.25z M35.75,255.99
		l35.75,35.75v-35.75H35.75z M261.85,264.54c-1.32-10.77-6.38-18.79-15.39-17.69c-9.01,1.11-11.97,10.11-10.65,20.88
		c1.32,10.77,6.38,18.79,15.39,17.69C260.21,284.32,263.18,275.31,261.85,264.54 M222.3,269.39c-1.83-14.88,8.32-26.96,23.39-28.81
		c15.07-1.85,27.84,7.41,29.67,22.29c1.83,14.88-8.32,26.96-23.39,28.81C236.9,293.54,224.13,284.28,222.3,269.39 M426.4,289.71
		v-4.34l-0.79-0.79h-1.19c-1.97,0-3.94-1.97-3.94-3.94v-24.76c0-9.76-6.31-15.48-15.68-15.48c-7.3,0-12.53,2.96-16.08,8.29
		c-2.27-5.91-8.38-8.29-14.99-8.29c-6.41,0-13.12,3.45-16.37,8.78c0,0-0.11,0.04-0.27,0.1c-2.23-5.69-7.52-8.89-14.52-8.89
		c-7.3,0-12.53,2.96-16.08,8.29c-2.27-5.91-8.38-8.29-14.99-8.29c-6.41,0-13.12,3.45-16.37,8.78l0.99-6.61l-0.79-0.79h-3.16
		l-14.4,5.82l-0.59,0.79v4.29l0.79,0.79h1.19c1.97,0,3.94,1.97,3.94,3.94v23.23c0,1.97-1.97,3.94-3.94,3.94h-1.19l-0.79,0.79v4.34
		l0.79,0.79h23.27l0.79-0.79v-4.34l-0.79-0.79h-1.19c-1.97,0-3.94-1.97-3.94-3.94v-19.51c0-8.09,4.74-12.92,10.46-12.92
		c5.22,0,7.6,3.45,7.6,9.57v22.88c0,1.97-1.97,3.94-3.94,3.94h-1.19l-0.79,0.79v4.34l0.79,0.79h23.27l0.79-0.79v-4.34l-0.79-0.79
		h-1.19c-1.97,0-3.94-1.97-3.94-3.94v-19.53c0-8.09,4.64-12.92,10.35-12.92c5.13,0,7.69,3.45,7.69,9.57v22.88
		c0,1.97-1.97,3.94-3.94,3.94h-1.19l-0.79,0.79v4.34l0.79,0.79h23.38l0.79-0.79v-4.34l-0.79-0.79h-1.19c-1.97,0-3.94-1.97-3.94-3.94
		v-19.53c0-8.09,4.74-12.92,10.46-12.92c5.22,0,7.6,3.45,7.6,9.57v22.88c0,1.97-1.97,3.94-3.94,3.94h-1.19l-0.79,0.79v4.34
		l0.79,0.79h23.27l0.79-0.79v-4.34l-0.79-0.79h-1.19c-1.97,0-3.94-1.97-3.94-3.94v-19.53c0-8.09,4.63-12.92,10.35-12.92
		c5.13,0,7.69,3.45,7.69,9.57v22.88c0,1.97-1.97,3.94-3.94,3.94h-1.19l-0.79,0.79v4.34l0.79,0.79h23.27L426.4,289.71L426.4,289.71z
		 M483.82,277.38l0.27-29.39l-7.3-0.06l-0.78-0.79l0.02-2.17l18.8-16.79l1.67,0.02l0.79,0.79l-0.12,12.82l12.43,0.11l0.79,0.79
		l-0.04,4.74l-0.79,0.79l-12.43-0.11l-0.28,30.28c-0.04,4.05,2.41,6.04,5.57,6.07c3.06,0.03,5.05-1.63,6.45-4.28l0.79-0.29
		l1.96,0.81l0.38,0.79c-1.62,4.82-5.13,10.51-14,10.43C490.49,291.85,483.73,287.64,483.82,277.38 M459.6,261.81
		c3.13-0.42,3.77-2.54,3.64-4.5c-0.5-7.18-5.25-11.4-11.64-10.95c-8.26,0.58-12.7,7.81-12.5,17.78l0.74,0.64L459.6,261.81
		L459.6,261.81z M439.74,270.52c1.63,7.8,8.19,12.48,17.24,11.84c8.37-0.59,14.13-4.45,17.91-11.14l0.95-0.46l1.11,0.32l0.56,0.95
		c-2.44,11.74-10.94,18.96-22.74,19.79c-15.35,1.07-26.77-9.6-27.8-24.26c-0.99-14.17,9.74-26.09,23.82-27.08
		c16.53-1.15,24.95,10.51,25.88,23.6l-0.73,0.84L439.74,270.52z M107.51,255.99c0-21.02,16.87-35.92,38.29-35.92
		c9.08,0,15.89,2.27,21.61,5.63l0.79,1.28l0.75,13.02l-0.79,0.79h-5.23l-0.85-0.79c-0.89-8.39-7.4-12.83-16.19-12.83
		c-15.39,0-23.58,14.02-23.58,28.82c0,13.91,7.4,28.82,22.6,28.82c7.11,0,14.21-3.65,14.21-10.95v-16.43c0-1.97-1.97-3.95-3.95-3.95
		H144.5l-0.79-0.79v-4.34l0.79-0.79h34.22l0.79,0.79v4.34l-0.79,0.79h-1.65c-1.97,0-3.95,1.97-3.95,3.95v22.64l-0.79,1.28
		c-8.98,6.81-17.27,10.56-28.02,10.56C123.4,291.92,107.51,277.02,107.51,255.99 M183.4,289.75v-4.34l0.79-0.79h1.19
		c1.97,0,3.95-1.97,3.95-3.95v-23.24c0-1.97-1.97-3.95-3.95-3.95h-1.19l-0.79-0.79v-4.29l0.59-0.79l14.41-5.83h3.16l0.79,0.79
		l-0.99,7.5c2.56-5.53,7.5-9.67,13.91-9.67c4.83,0,8.19,3.25,8.19,7.5c0,4.05-3.16,7.3-7.4,7.3c-4.05,0-7.2-3.06-7.4-7
		c-3.85,2.37-6.31,8-6.31,14.91v17.57c0,1.97,1.97,3.95,3.95,3.95h1.19l0.79,0.79v4.34l-0.79,0.79H184.2L183.4,289.75L183.4,289.75z
		"/>
</g>
</svg>
