<?xml version="1.0" encoding="iso-8859-1"?>
<!-- Uploaded to: SVG Repo, www.svgrepo.com, Generator: SVG Repo Mixer Tools -->
<!DOCTYPE svg PUBLIC "-//W3C//DTD SVG 1.1//EN" "http://www.w3.org/Graphics/SVG/1.1/DTD/svg11.dtd">
<svg fill="#000000" version="1.1" id="Capa_1" xmlns="http://www.w3.org/2000/svg" xmlns:xlink="http://www.w3.org/1999/xlink" 
	 width="800px" height="800px" viewBox="0 0 195.388 195.388"
	 xml:space="preserve">
<g>
	<path d="M94.375,69.559c1.429,0.962,1.814,2.901,0.862,4.336l-30.604,45.777c-0.597,0.89-1.583,1.377-2.594,1.377
		c-0.573,0-1.157-0.152-1.681-0.487L38.745,106.74c-1.446-0.926-1.875-2.862-0.941-4.312c0.935-1.443,2.85-1.888,4.302-0.932
		l19.044,12.166l28.911-43.235C91.008,68.999,92.942,68.606,94.375,69.559z M195.175,66l-38.276,97.21
		c-0.079,0.183-0.256,0.28-0.359,0.438c-3.934,10.766-38.111,13.719-58.833,13.719c-20.718,0-54.921-2.978-58.849-13.719
		c-0.106-0.158-0.28-0.256-0.362-0.438L0.219,66c-0.5-1.254-0.125-2.707,0.922-3.553c1.053-0.855,2.53-0.935,3.666-0.207
		l32.556,21.127l8.647-18.725c0.706-1.541,2.518-2.247,4.104-1.528l22.831,10.218l10.547-15.868
		c-5.133-4.202-8.126-10.413-8.126-17.135c0-12.3,10.001-22.308,22.311-22.308c12.312,0,22.311,10.007,22.311,22.308
		c0,6.722-2.99,12.933-8.123,17.135l10.997,16.52L145.16,63.15c0.755-0.362,1.644-0.393,2.423-0.131
		c0.792,0.28,1.425,0.874,1.778,1.623l8.477,18.362l32.734-20.776c1.146-0.731,2.612-0.624,3.654,0.231
		C195.267,63.312,195.675,64.746,195.175,66z M126.375,79.22l11.112,16.718l15.077-9.555l-7.496-16.236L126.375,79.22z M42.63,86.77
		l14.952,9.709l11.886-17.89l-19.087-8.524l-7.663,16.611C42.712,86.707,42.654,86.734,42.63,86.77z M156.4,147.5
		c-0.962-3.386-20.874-10.656-58.675-10.656c-37.823,0-57.726,7.271-58.688,10.656l3.118,7.903
		c9.916-7.483,37.744-9.682,55.57-9.682c17.816,0,45.644,2.198,55.558,9.682L156.4,147.5z M150.712,161.53
		c-0.712-3.228-20.069-9.572-53-9.572c-32.927,0-52.293,6.363-53.012,9.621c0.767,3.301,19.634,9.56,53.012,9.56
		C131.087,171.138,149.946,164.879,150.712,161.53z M185.877,72.616l-47.636,30.227c-1.431,0.914-3.318,0.512-4.269-0.907
		l-28.947-43.528c-0.463-0.706-0.634-1.571-0.444-2.402c0.188-0.834,0.7-1.546,1.431-1.981c4.853-2.963,7.77-8.074,7.77-13.688
		c0-8.866-7.222-16.072-16.075-16.072c-8.866,0-16.075,7.206-16.075,16.072c0,5.614,2.907,10.732,7.77,13.688
		c0.719,0.435,1.23,1.16,1.428,1.981c0.18,0.832,0.019,1.69-0.435,2.402L61.08,102.507c-0.94,1.431-2.862,1.815-4.29,0.896
		L9.621,72.777l26.987,68.537c10.973-8.281,42.737-10.692,61.123-10.692c18.377,0,50.126,2.411,61.11,10.692L185.877,72.616z"/>
</g>
</svg>